<svg width="36" height="36" viewBox="0 0 36 36" fill="none" xmlns="http://www.w3.org/2000/svg">
<path fill-rule="evenodd" clip-rule="evenodd" d="M26.2544 0H9.74556C8.31341 0 6.93991 0.568927 5.92721 1.58162L1.58162 5.92721C0.568928 6.9399 0 8.31341 0 9.74556V12.6V30.6C0 33.5823 2.41766 36 5.4 36H30.6C33.5823 36 36 33.5823 36 30.6V12.6V9.74556C36 8.31341 35.4311 6.93991 34.4184 5.92721L30.0728 1.58162C29.0601 0.568929 27.6866 0 26.2544 0ZM30.6 7.2L27.5272 4.12721C27.1896 3.78964 26.7318 3.6 26.2544 3.6H9.74556C9.2682 3.6 8.81035 3.78964 8.47282 4.12721L5.4 7.2H30.6ZM3.6 12.6V30.6C3.6 31.5941 4.40589 32.4 5.4 32.4H30.6C31.5941 32.4 32.4 31.5941 32.4 30.6V12.6C32.4 11.6059 31.5941 10.8 30.6 10.8H5.4C4.40589 10.8 3.6 11.6059 3.6 12.6ZM7.2 27C7.2 26.0059 8.0059 25.2 9 25.2H12.6C13.5941 25.2 14.4 26.0059 14.4 27C14.4 27.9941 13.5941 28.8 12.6 28.8H9C8.0059 28.8 7.2 27.9941 7.2 27ZM9 19.8C8.0059 19.8 7.2 20.6059 7.2 21.6C7.2 22.5941 8.0059 23.4 9 23.4H16.2C17.1941 23.4 18 22.5941 18 21.6C18 20.6059 17.1941 19.8 16.2 19.8H9Z" fill="#063940"/>
</svg>
