<svg width="36" height="36" viewBox="0 0 36 36" fill="none" xmlns="http://www.w3.org/2000/svg">
<path fill-rule="evenodd" clip-rule="evenodd" d="M34.2 0C35.1941 0 36 0.805889 36 1.8C36 2.79411 35.1941 3.6 34.2 3.6V1.8L34.2 3.6H34.1999H34.1996H34.1985H34.1939H34.1864H34.1761H34.1469H34.1068H33.8484H32.9625H32.1759L30.5842 15.5379L30.5791 15.5737L29.7615 20.8879L32.2343 26.2457C32.4916 26.803 32.447 27.453 32.1162 27.9701C31.7854 28.4872 31.2138 28.8 30.6 28.8H23.4C25.3882 28.8 27 30.4118 27 32.4C27 34.3882 25.3882 36 23.4 36C21.4118 36 19.8 34.3882 19.8 32.4C19.8 30.4118 21.4118 28.8 23.4 28.8H10.8C12.7882 28.8 14.4 30.4118 14.4 32.4C14.4 34.3882 12.7882 36 10.8 36C8.8118 36 7.2 34.3882 7.2 32.4C7.2 30.4118 8.8118 28.8 10.8 28.8H6.3C5.3059 28.8 4.5 27.9941 4.5 27C4.5 26.0059 5.3059 25.2 6.3 25.2H27.7867L26.956 23.4H7.2C6.42521 23.4 5.7374 22.9042 5.49238 22.1692L0.0923805 5.96921C-0.0905724 5.4203 0.00144577 4.81691 0.339771 4.34752C0.678101 3.87814 1.22141 3.6 1.80001 3.6H28.544L28.8158 1.5621C28.935 0.667855 29.6978 0 30.6 0H32.9625H33.8484H34.1068H34.1761H34.1939H34.1966H34.1976H34.1981H34.1985H34.1991H34.1994H34.1996H34.1999H34.2L34.2 1.8V0ZM28.0641 7.2L27.0182 15.0442L26.2865 19.8H8.49737L4.2974 7.2H28.0641Z" fill="#063940"/>
</svg>
