<svg width="36" height="36" viewBox="0 0 36 36" fill="none" xmlns="http://www.w3.org/2000/svg">
<path fill-rule="evenodd" clip-rule="evenodd" d="M3.6 4.42003C3.6 3.93237 4.00228 3.53663 4.5 3.53663H24.0062C23.6175 4.34055 23.4 5.23986 23.4 6.18909V30.686L20.5731 28.4246C18.9999 27.1661 16.6794 27.4326 15.4441 29.0136L13.4268 31.5958L11.1507 28.972C9.77846 27.3902 7.32038 27.3062 5.8396 28.7906L3.6 31.0355V18.0873V4.42003ZM28.8 0V0.0626768C29.094 0.0213718 29.3944 0 29.7 0C33.1794 0 36 2.77095 36 6.18909V17.5255C36 18.5892 35.1222 19.4514 34.0396 19.4514H27V34.0665C27 35.6924 25.0787 36.5897 23.7953 35.563L18.3 31.167L15.6052 34.616C14.5591 35.955 12.5229 36.0062 11.4085 34.7215L8.41075 31.266L4.62834 35.0574C2.93548 36.7544 0 35.5769 0 33.2009V18.0873V4.42003C0 1.97785 2.01538 0 4.5 0H28.8ZM32.4 6.18909V15.9148H27V6.18909C27 4.72417 28.2088 3.53663 29.7 3.53663C31.1912 3.53663 32.4 4.72417 32.4 6.18909ZM15.2996 8.84153C15.2996 7.86492 14.4937 7.07324 13.4996 7.07324C12.5055 7.07324 11.6996 7.86492 11.6996 8.84153V9.47167C9.66449 9.75737 8.1 11.4767 8.1 13.5549C8.1 15.8331 9.97992 17.68 12.2989 17.68H14.7043C15.0352 17.68 15.3033 17.9433 15.3033 18.2683C15.3033 18.5933 15.0352 18.8567 14.7043 18.8567H10.5003C9.50616 18.8567 8.70026 19.6484 8.70026 20.625C8.70026 21.6016 9.50616 22.3933 10.5003 22.3933H11.6996V22.9817C11.6996 23.9583 12.5055 24.75 13.4996 24.75C14.4937 24.75 15.2996 23.9583 15.2996 22.9817V22.3522C17.3367 22.0682 18.9033 20.348 18.9033 18.2683C18.9033 15.9901 17.0234 14.1433 14.7043 14.1433H12.2989C11.9681 14.1433 11.7 13.8799 11.7 13.5549C11.7 13.23 11.9681 12.9666 12.2989 12.9666H16.503C17.4972 12.9666 18.303 12.1748 18.303 11.1982C18.303 10.2216 17.4972 9.42991 16.503 9.42991H15.2996V8.84153Z" fill="#063940"/>
</svg>
