<svg width="36" height="36" viewBox="0 0 36 36" fill="none" xmlns="http://www.w3.org/2000/svg">
<path fill-rule="evenodd" clip-rule="evenodd" d="M24.7666 7.21476C24.5694 7.20497 24.371 7.2 24.1714 7.2H17.2286C11.8281 7.2 7.29453 10.8521 5.86749 15.8006C4.52548 15.1507 3.59999 13.7758 3.59999 12.1846V10.3765C3.59999 6.63393 6.63393 3.6 10.3765 3.6H19.3765C21.8109 3.6 23.8964 5.09379 24.7666 7.21476ZM5.40518 19.4743C5.58331 25.5633 10.3529 30.5538 16.3892 30.9478L21.0457 35.0616C23.4504 37.1859 27.225 35.4701 27.225 32.2527V30.7627C32.2284 29.7642 36 25.3282 36 20.007V19.0865C36 14.1371 32.9897 9.89417 28.7086 8.10583C28.0677 3.52518 24.1337 0 19.3765 0H10.3765C4.64572 0 -7.62939e-06 4.6457 -7.62939e-06 10.3765V12.1846C-7.62939e-06 15.6218 2.27714 18.5272 5.40518 19.4743ZM18.2372 27.7636L23.4227 32.3446C23.5014 32.4142 23.625 32.358 23.625 32.2527V28.825C23.625 28.8006 23.6256 28.7763 23.6268 28.7523C23.6412 28.4552 23.7433 28.1814 23.9077 27.9562C24.1739 27.5918 24.6032 27.3553 25.0875 27.3553C29.1261 27.3553 32.4 24.0654 32.4 20.007V19.0865C32.4 14.5197 28.716 10.8176 24.1714 10.8176H17.2286C12.684 10.8176 9 14.5545 9 19.1213C9 23.6498 12.6532 27.3553 17.1597 27.3553C17.5563 27.3553 17.9393 27.5004 18.2372 27.7636Z" fill="#063940"/>
</svg>
