<svg width="24" height="24" viewBox="0 0 24 24" fill="none" xmlns="http://www.w3.org/2000/svg">
<circle cx="12" cy="12" r="11.5" stroke="#1CBFA2"/>
<path fill-rule="evenodd" clip-rule="evenodd" d="M17.6321 7.12288C17.5915 7.08395 17.5433 7.05304 17.4902 7.03195C17.4371 7.01086 17.3801 7 17.3226 7C17.265 7 17.2081 7.01086 17.1549 7.03195C17.1018 7.05304 17.0536 7.08395 17.0131 7.12288L10.4904 13.3084C10.45 13.3476 10.4018 13.3788 10.3486 13.4001C10.2954 13.4213 10.2383 13.4323 10.1806 13.4323C10.1229 13.4323 10.0658 13.4213 10.0126 13.4001C9.95946 13.3788 9.91126 13.3476 9.87085 13.3084L7.0129 10.5355C6.97254 10.4962 6.92435 10.465 6.87116 10.4437C6.81796 10.4224 6.76084 10.4114 6.70313 10.4114C6.64543 10.4114 6.5883 10.4224 6.53511 10.4437C6.48192 10.465 6.43372 10.4962 6.39336 10.5355L5.13036 11.6171C5.08902 11.656 5.0562 11.7023 5.03382 11.7534C5.01144 11.8044 4.99995 11.8592 5 11.9146C5.00005 11.9699 5.01166 12.0247 5.03414 12.0757C5.05662 12.1267 5.08952 12.173 5.13094 12.2118L8.01281 15.0931C8.18315 15.2576 8.46259 15.5244 8.63235 15.6878L9.87144 16.8778C9.9536 16.956 10.065 17 10.1812 17C10.2974 17 10.4088 16.956 10.491 16.8778L18.8717 8.90756C18.9539 8.82829 19 8.72136 19 8.60993C19 8.49851 18.9539 8.39157 18.8717 8.3123L17.6321 7.12288Z" fill="#1CBFA2"/>
</svg>
