<svg width="145" height="67" viewBox="0 0 145 67" fill="none" xmlns="http://www.w3.org/2000/svg">
<path d="M2.916 47V22.16H18.288V24.932H6.084V33.032H16.128V35.768H6.084V44.228H18.288V47H2.916ZM29.1504 47.36C27.2304 47.36 25.7184 47.048 24.6144 46.424C23.5344 45.776 22.7664 44.744 22.3104 43.328C21.8784 41.912 21.6624 40.04 21.6624 37.712C21.6624 35.528 21.9144 33.764 22.4184 32.42C22.9224 31.076 23.7264 30.116 24.8304 29.54C25.9584 28.94 27.4104 28.64 29.1864 28.64C29.6184 28.64 30.1344 28.676 30.7344 28.748C31.3344 28.796 31.9464 28.868 32.5704 28.964C33.2184 29.036 33.7704 29.108 34.2264 29.18L34.1184 31.7C33.6864 31.652 33.2064 31.604 32.6784 31.556C32.1504 31.508 31.6224 31.472 31.0944 31.448C30.5904 31.4 30.1704 31.376 29.8344 31.376C28.5144 31.376 27.4824 31.592 26.7384 32.024C26.0184 32.432 25.5144 33.092 25.2264 34.004C24.9384 34.916 24.7944 36.152 24.7944 37.712C24.7944 39.416 24.9144 40.772 25.1544 41.78C25.4184 42.788 25.9104 43.52 26.6304 43.976C27.3504 44.408 28.4184 44.624 29.8344 44.624C30.1704 44.624 30.6024 44.612 31.1304 44.588C31.6584 44.54 32.1864 44.492 32.7144 44.444C33.2664 44.396 33.7584 44.36 34.1904 44.336L34.2624 46.82C33.7824 46.916 33.2184 47 32.5704 47.072C31.9464 47.144 31.3224 47.204 30.6984 47.252C30.0984 47.324 29.5824 47.36 29.1504 47.36ZM45.2236 47.36C43.2076 47.36 41.6236 47.012 40.4716 46.316C39.3436 45.62 38.5516 44.576 38.0956 43.184C37.6396 41.768 37.4116 39.968 37.4116 37.784C37.4116 35.72 37.6636 34.016 38.1676 32.672C38.6716 31.304 39.4996 30.296 40.6516 29.648C41.8036 28.976 43.3276 28.64 45.2236 28.64C47.1436 28.64 48.6796 28.976 49.8316 29.648C50.9836 30.296 51.8116 31.304 52.3156 32.672C52.8196 34.016 53.0716 35.72 53.0716 37.784C53.0716 39.968 52.8316 41.768 52.3516 43.184C51.8956 44.576 51.1036 45.62 49.9756 46.316C48.8476 47.012 47.2636 47.36 45.2236 47.36ZM45.2236 44.732C46.5676 44.732 47.5756 44.504 48.2476 44.048C48.9196 43.568 49.3636 42.812 49.5796 41.78C49.7956 40.748 49.9036 39.416 49.9036 37.784C49.9036 36.176 49.7596 34.892 49.4716 33.932C49.2076 32.972 48.7396 32.288 48.0676 31.88C47.3956 31.472 46.4476 31.268 45.2236 31.268C44.0236 31.268 43.0756 31.472 42.3796 31.88C41.7076 32.288 41.2276 32.972 40.9396 33.932C40.6756 34.892 40.5436 36.176 40.5436 37.784C40.5436 39.416 40.6516 40.748 40.8676 41.78C41.0836 42.812 41.5276 43.568 42.1996 44.048C42.8716 44.504 43.8796 44.732 45.2236 44.732ZM57.3286 47V29H60.3526V30.224C60.9286 29.888 61.7086 29.54 62.6926 29.18C63.6766 28.82 64.6126 28.64 65.5006 28.64C66.7006 28.64 67.6606 28.784 68.3806 29.072C69.1006 29.36 69.6886 29.816 70.1446 30.44C70.6246 30.176 71.2126 29.912 71.9086 29.648C72.6046 29.36 73.3486 29.12 74.1406 28.928C74.9326 28.736 75.7126 28.64 76.4806 28.64C78.1366 28.64 79.3966 28.928 80.2606 29.504C81.1486 30.056 81.7606 30.992 82.0966 32.312C82.4566 33.608 82.6366 35.336 82.6366 37.496V47H79.5766V37.64C79.5766 36.128 79.4806 34.916 79.2886 34.004C79.1206 33.068 78.7846 32.396 78.2806 31.988C77.7766 31.58 77.0086 31.376 75.9766 31.376C75.0406 31.376 74.1286 31.52 73.2406 31.808C72.3526 32.072 71.6686 32.336 71.1886 32.6C71.3326 33.224 71.4286 33.992 71.4766 34.904C71.5486 35.792 71.5846 36.716 71.5846 37.676V47H68.5606V37.784C68.5606 36.2 68.4766 34.94 68.3086 34.004C68.1406 33.068 67.7926 32.396 67.2646 31.988C66.7606 31.58 65.9806 31.376 64.9246 31.376C64.0606 31.376 63.1966 31.52 62.3326 31.808C61.4926 32.072 60.8326 32.336 60.3526 32.6V47H57.3286ZM92.1375 47L85.7295 22.16H89.0415L94.4775 44.12H96.3855L101.858 22.16H105.134L98.7975 47H92.1375ZM108.481 47V29H111.505V47H108.481ZM108.481 25.184V21.836H111.505V25.184H108.481ZM122.472 47.396C121.224 47.396 120.228 47.204 119.484 46.82C118.74 46.436 118.2 45.776 117.864 44.84C117.552 43.88 117.396 42.536 117.396 40.808V31.628H114.912V29H117.396V23.6H120.456V29H125.964V31.628H120.456V39.944C120.456 41.168 120.504 42.128 120.6 42.824C120.72 43.496 120.948 43.976 121.284 44.264C121.644 44.528 122.196 44.66 122.94 44.66C123.18 44.66 123.48 44.648 123.84 44.624C124.224 44.6 124.608 44.576 124.992 44.552C125.4 44.504 125.748 44.468 126.036 44.444L126.216 47C125.688 47.072 125.052 47.156 124.308 47.252C123.588 47.348 122.976 47.396 122.472 47.396ZM135.668 47.36C133.844 47.36 132.404 47.012 131.348 46.316C130.292 45.62 129.524 44.588 129.044 43.22C128.588 41.852 128.36 40.148 128.36 38.108C128.36 35.852 128.672 34.028 129.296 32.636C129.92 31.244 130.796 30.236 131.924 29.612C133.076 28.964 134.444 28.64 136.028 28.64C138.476 28.64 140.312 29.312 141.536 30.656C142.784 31.976 143.408 34.1 143.408 37.028L143.264 39.26H131.492C131.516 41.036 131.852 42.392 132.5 43.328C133.148 44.24 134.324 44.696 136.028 44.696C136.7 44.696 137.444 44.684 138.26 44.66C139.076 44.612 139.88 44.564 140.672 44.516C141.488 44.468 142.172 44.42 142.724 44.372L142.796 46.748C142.22 46.844 141.512 46.94 140.672 47.036C139.832 47.132 138.968 47.204 138.08 47.252C137.216 47.324 136.412 47.36 135.668 47.36ZM131.492 36.848H140.312C140.312 34.736 139.976 33.26 139.304 32.42C138.632 31.556 137.54 31.124 136.028 31.124C134.564 31.124 133.436 31.568 132.644 32.456C131.876 33.344 131.492 34.808 131.492 36.848Z" fill="#1CBFA2"/>
<rect x="27" y="51" width="117" height="4" rx="2" fill="#1CBFA2"/>
<rect x="19" y="51" width="4" height="4" rx="2" fill="#1CBFA2"/>
<rect x="11" y="51" width="4" height="4" rx="2" fill="#1CBFA2"/>
<rect x="3" y="51" width="4" height="4" rx="2" fill="#1CBFA2"/>
</svg>
