<svg width="40" height="36" viewBox="0 0 40 36" fill="none" xmlns="http://www.w3.org/2000/svg">
<path fill-rule="evenodd" clip-rule="evenodd" d="M6.06014 0.501862C4.78876 1.20689 4 2.54622 4 4V11.3414C1.66965 12.1651 -3.43323e-05 14.3875 -3.43323e-05 17C-3.43323e-05 19.6124 1.66965 21.8349 4 22.6586V30C4 31.4538 4.78876 32.7931 6.06014 33.4981C7.33151 34.2032 8.88535 34.1629 10.1185 33.3929L14.0518 30.937C17.1241 29.0187 20.4919 27.6589 24 26.902V34C24 35.1046 24.8954 36 26 36H32C33.1046 36 34 35.1046 34 34V25.6282C37.5034 24.3284 40 20.9557 40 17C40 11.919 35.881 7.79998 30.8 7.79998H30.5827C24.7375 7.79998 19.0098 6.15869 14.0518 3.06297L10.1185 0.607069C8.88535 -0.162888 7.33151 -0.203169 6.06014 0.501862ZM30 26.2054V32H28V26.307C28.6642 26.2518 29.3312 26.2179 30 26.2054ZM8.00003 4L11.9333 6.4559L12 6.49744C17.578 9.963 24.0146 11.8 30.5827 11.8H30.8C33.6719 11.8 36 14.1281 36 17C36 19.8719 33.6719 22.2 30.8 22.2H30.5827C24.0146 22.2 17.578 24.037 12 27.5026L11.9333 27.5441L8.00003 30V25.2843V8.71567V4Z" fill="#063940"/>
</svg>
