<svg width="14" height="18" viewBox="0 0 14 18" fill="none" xmlns="http://www.w3.org/2000/svg">
<path d="M9.15385 3.25286C10.046 3.25286 10.7692 2.5247 10.7692 1.62643C10.7692 0.728167 10.046 0 9.15385 0C8.26168 0 7.53846 0.728167 7.53846 1.62643C7.53846 2.5247 8.26168 3.25286 9.15385 3.25286ZM3.82611 10.7572L3.32803 11.9268H1.07692C0.48226 11.9268 0 12.4124 0 13.0111C0 13.6098 0.48226 14.0954 1.07692 14.0954H3.68341C4.33125 14.0954 4.91447 13.7078 5.16788 13.1097L5.4637 12.4144L5.10462 12.2009C4.52173 11.8543 4.09298 11.3413 3.82611 10.7572ZM12.9231 7.58968H11.4413L10.5643 5.78535C10.1436 4.91962 9.37125 4.28666 8.48514 4.0593L6.09303 3.343C5.14063 3.11258 4.14885 3.32436 3.37245 3.92377L2.0374 4.95418C1.56524 5.31843 1.47572 5.99882 1.83817 6.47422C2.20063 6.94961 2.87606 7.03872 3.34788 6.67481L4.68361 5.6444C4.94173 5.44482 5.27053 5.37332 5.53404 5.43635L6.02875 5.58442L4.76808 8.54554C4.34337 9.54444 4.72399 10.7145 5.65317 11.2668L8.51308 12.9667L7.58861 15.9394C7.41091 16.5107 7.72692 17.1189 8.29433 17.2978C8.40168 17.3317 8.51005 17.3479 8.61673 17.3479C9.07476 17.3479 9.49947 17.0508 9.64385 16.5872L10.7087 13.1629C10.9075 12.4591 10.6114 11.7032 9.98038 11.32L7.91942 10.0954L8.97313 7.44296L9.65529 8.84677C9.92452 9.40044 10.4939 9.75791 11.1061 9.75791H12.9231C13.5177 9.75791 14 9.27236 14 8.67362C14 8.07489 13.5177 7.58968 12.9231 7.58968Z" fill="#1CBFA2"/>
</svg>
