<svg width="45" height="36" viewBox="0 0 45 36" fill="none" xmlns="http://www.w3.org/2000/svg">
<path fill-rule="evenodd" clip-rule="evenodd" d="M22.5 18C18.7721 18 15.75 21.0221 15.75 24.75V27.3214V33.75C15.75 34.9926 14.7426 36 13.5 36C12.2574 36 11.25 34.9926 11.25 33.75V27.3214V24.75L11.2503 24.6702C10.8827 24.7228 10.507 24.75 10.125 24.75C9.87739 24.75 9.63245 24.7386 9.3906 24.7162C9.26374 24.7384 9.1332 24.75 9 24.75H8.0357C6.08299 24.75 4.5 26.333 4.5 28.2857V31.5C4.5 32.7426 3.49264 33.75 2.25 33.75C1.00736 33.75 0 32.7426 0 31.5V28.2857C0 25.4259 1.49391 22.915 3.74391 21.4908C2.80409 20.1939 2.25 18.5992 2.25 16.875C2.25 12.5258 5.77576 9 10.125 9C11.3457 9 12.5016 9.27778 13.5328 9.7735C13.5111 9.51854 13.5 9.26057 13.5 9C13.5 4.02944 17.5294 0 22.5 0C27.4706 0 31.5 4.02944 31.5 9C31.5 9.26057 31.4889 9.51854 31.4672 9.7735C32.4984 9.27778 33.6543 9 34.875 9C39.2242 9 42.75 12.5258 42.75 16.875C42.75 18.5992 42.1959 20.1939 41.2561 21.4908C43.5061 22.915 45 25.4259 45 28.2857V31.5C45 32.7426 43.9926 33.75 42.75 33.75C41.5074 33.75 40.5 32.7426 40.5 31.5V28.2857C40.5 26.333 38.917 24.75 36.9643 24.75H36C35.8668 24.75 35.7363 24.7384 35.6094 24.7162C35.3675 24.7386 35.1226 24.75 34.875 24.75C34.493 24.75 34.1173 24.7228 33.7497 24.6702L33.75 24.75V27.3214V33.75C33.75 34.9926 32.7426 36 31.5 36C30.2574 36 29.25 34.9926 29.25 33.75V27.3214V24.75C29.25 21.0221 26.2279 18 22.5 18ZM22.5 13.5C20.0147 13.5 18 11.4853 18 9C18 6.51472 20.0147 4.5 22.5 4.5C24.9853 4.5 27 6.51472 27 9C27 11.4853 24.9853 13.5 22.5 13.5ZM10.125 13.5C8.26106 13.5 6.75 15.0111 6.75 16.875C6.75 18.7389 8.26106 20.25 10.125 20.25C11.9889 20.25 13.5 18.7389 13.5 16.875C13.5 15.0111 11.9889 13.5 10.125 13.5ZM34.875 13.5C33.0111 13.5 31.5 15.0111 31.5 16.875C31.5 18.7389 33.0111 20.25 34.875 20.25C36.7389 20.25 38.25 18.7389 38.25 16.875C38.25 15.0111 36.7389 13.5 34.875 13.5Z" fill="#063940"/>
</svg>
